HIERARCHY
ROOT Hips
{
	OFFSET 0.000000 0.000000 0.000000
	CHANNELS 6 Xposition Yposition Zposition Xrotation Yrotation Zrotation
	JOINT LeftUpLeg_virtual
	{
		OFFSET 0.000000 0.000000 0.000000
		CHANNELS 3 Xrotation Yrotation Zrotation
		JOINT LeftUpLeg
		{
			OFFSET 13.026900 -6.336304 -1.092800
			CHANNELS 3 Xrotation Yrotation Zrotation
			JOINT LeftLeg
			{
				OFFSET 0.524474 -46.096886 9.782700
				CHANNELS 3 Xrotation Yrotation Zrotation
				JOINT LeftFoot
				{
					OFFSET -0.524474 -53.427422 -12.948200
					CHANNELS 3 Xrotation Yrotation Zrotation
					JOINT LeftToeBase
					{
						OFFSET 0.192200 -14.009700 16.364100
						CHANNELS 3 Xrotation Yrotation Zrotation
						JOINT LeftToe_End
						{
							OFFSET -1.784700 -0.561700 9.474800
							CHANNELS 3 Xrotation Yrotation Zrotation
							End Site
							{
								OFFSET 0 0 0
							}
						}
					}
				}
			}
		}
	}
	JOINT RightUpLeg_virtual
	{
		OFFSET 0.000000 0.000000 0.000000
		CHANNELS 3 Xrotation Yrotation Zrotation
		JOINT RightUpLeg
		{
			OFFSET -12.883000 -6.336304 -1.092800
			CHANNELS 3 Xrotation Yrotation Zrotation
			JOINT RightLeg
			{
				OFFSET -0.524587 -46.096825 9.782800
				CHANNELS 3 Xrotation Yrotation Zrotation
				JOINT RightFoot
				{
					OFFSET 0.524587 -53.427383 -12.948300
					CHANNELS 3 Xrotation Yrotation Zrotation
					JOINT RightToeBase
					{
						OFFSET -0.192200 -14.009700 16.364100
						CHANNELS 3 Xrotation Yrotation Zrotation
						JOINT RightToe_End
						{
							OFFSET 1.784700 -0.561700 9.474800
							CHANNELS 3 Xrotation Yrotation Zrotation
							End Site
							{
								OFFSET 0 0 0
							}
						}
					}
				}
			}
		}
	}
	JOINT Spine_virtual
	{
		OFFSET 0.000000 0.000000 0.000000
		CHANNELS 3 Xrotation Yrotation Zrotation
		JOINT Spine
		{
			OFFSET 0.072000 7.257294 -0.789700
			CHANNELS 3 Xrotation Yrotation Zrotation
			JOINT Spine1
			{
				OFFSET 0.000000 12.508769 -0.658067
				CHANNELS 3 Xrotation Yrotation Zrotation
				JOINT Spine1_split
				{
					OFFSET 0.000000 12.508769 -0.658067
					CHANNELS 3 Xrotation Yrotation Zrotation
					JOINT Spine2
					{
						OFFSET 0.000000 12.508769 -0.658067
						CHANNELS 3 Xrotation Yrotation Zrotation
						JOINT Neck_virtual
						{
							OFFSET 0.000000 0.000000 0.000000
							CHANNELS 3 Xrotation Yrotation Zrotation
							JOINT Neck
							{
								OFFSET 0.000000 14.033295 7.520400
								CHANNELS 3 Xrotation Yrotation Zrotation
								JOINT Head
								{
									OFFSET 0.000000 8.198502 5.703100
									CHANNELS 3 Xrotation Yrotation Zrotation
									JOINT HeadTop_End
									{
										OFFSET 0.000000 17.760803 13.332701
										CHANNELS 3 Xrotation Yrotation Zrotation
										End Site
										{
											OFFSET 0 0 0
										}
									}
								}
							}
						}
						JOINT LeftShoulder_virtual
						{
							OFFSET 0.000000 0.000000 0.000000
							CHANNELS 3 Xrotation Yrotation Zrotation
							JOINT LeftShoulder
							{
								OFFSET 6.292450 5.785301 -0.669000
								CHANNELS 3 Xrotation Yrotation Zrotation
								JOINT LeftShoulder_split
								{
									OFFSET 6.292450 5.785301 -0.669000
									CHANNELS 3 Xrotation Yrotation Zrotation
									JOINT LeftArm
									{
										OFFSET 13.907140 -6.093903 1.965100
										CHANNELS 3 Xrotation Yrotation Zrotation
										JOINT LeftForeArm
										{
											OFFSET 34.140198 0.000000 0.000000
											CHANNELS 3 Xrotation Yrotation Zrotation
											JOINT LeftHand
											{
												OFFSET 40.960209 0.000000 0.000000
												CHANNELS 3 Xrotation Yrotation Zrotation
												End Site
												{
													OFFSET 0 0 0
												}
											}
										}
									}
								}
							}
						}
						JOINT RightShoulder_virtual
						{
							OFFSET 0.000000 0.000000 0.000000
							CHANNELS 3 Xrotation Yrotation Zrotation
							JOINT RightShoulder
							{
								OFFSET -6.292450 5.785301 -0.669000
								CHANNELS 3 Xrotation Yrotation Zrotation
								JOINT RightShoulder_split
								{
									OFFSET -6.292450 5.785301 -0.669000
									CHANNELS 3 Xrotation Yrotation Zrotation
									JOINT RightArm
									{
										OFFSET -13.907140 -6.093903 1.965100
										CHANNELS 3 Xrotation Yrotation Zrotation
										JOINT RightForeArm
										{
											OFFSET -34.140198 0.000000 0.000000
											CHANNELS 3 Xrotation Yrotation Zrotation
											JOINT RightHand
											{
												OFFSET -40.960209 0.000000 0.000000
												CHANNELS 3 Xrotation Yrotation Zrotation
												End Site
												{
													OFFSET 0 0 0
												}
											}
										}
									}
								}
							}
						}
					}
				}
			}
		}
	}
}
MOTION
Frames: 9
Frame Time: 0.03333333
-18.082407 27.673271 -72.533524 0.000000 0.000000 0.000000 -91.418202 21.546243 2.006049 -61.748872 9.898712 31.609699 63.970029 10.682851 -0.241623 34.741043 2.871234 -13.689215 -3.304853 0.507016 -0.865997 0.000000 0.000000 0.000000 -92.025181 24.260492 3.240108 -44.324338 -5.438092 -38.406867 96.316664 9.965593 2.297287 21.323711 1.602276 17.358653 -3.618407 1.206482 0.264347 0.000000 0.000000 0.000000 -89.945224 20.568534 -0.278254 56.848935 10.901783 -1.771275 18.487136 4.038875 0.609366 0.335095 -2.499849 0.657683 0.000000 0.000000 0.000000 22.061610 4.092011 0.229875 12.677615 -1.385776 -3.339747 29.966304 1.174271 0.496282 0.000000 0.000000 0.000000 20.247469 3.368570 -0.018625 1.326154 -4.451655 -10.223150 -2.796510 -2.794164 -5.515312 -35.324608 -18.749769 -35.548170 -7.869852 -56.077602 -2.427484 0.000000 0.000000 0.000000 19.476337 3.146362 0.575640 0.062842 12.163826 16.657663 -1.730736 -0.421004 -2.908853 -25.809917 -7.274922 35.477198 1.549477 46.437199 -2.245333 0.000000 0.000000 0.000000 
-19.200089 27.596233 -75.253540 0.000000 0.000000 0.000000 -98.940508 21.138828 1.914310 -55.478403 6.664356 31.175794 63.125496 8.913354 1.089447 34.125958 1.788789 -12.181939 -3.492476 0.680362 -1.053418 0.000000 0.000000 0.000000 -99.227083 24.971438 4.762319 -31.274958 -3.705583 -30.501238 92.321748 10.529656 -1.964706 16.869403 -0.313593 21.375253 -3.744872 1.006282 0.266619 0.000000 0.000000 0.000000 -98.186141 20.528907 -0.476860 54.802921 11.306674 -0.097096 19.263007 4.174992 0.718979 0.577754 -2.551609 0.995183 0.000000 0.000000 0.000000 22.072847 4.229922 0.080773 12.754343 -2.184374 -3.155106 31.844336 0.995454 -1.178684 0.000000 0.000000 0.000000 20.600390 3.484917 0.181003 1.045225 -4.022841 -8.761347 -2.025553 -2.512763 -5.337365 -30.059328 -19.140125 -32.750156 -9.548734 -58.374225 -3.863270 0.000000 0.000000 0.000000 19.895873 3.410597 0.684692 -0.089633 13.109673 16.144105 -2.342517 1.887015 -2.870828 -15.188240 -6.221752 35.508391 1.609687 41.306525 -1.534356 0.000000 0.000000 0.000000 
-20.085335 27.927677 -77.845474 0.000000 0.000000 0.000000 -105.849129 20.611226 1.702592 -49.285214 3.620583 31.654911 61.951175 6.695794 2.126492 34.113411 -0.091797 -11.132618 -3.097692 0.879010 -1.179638 0.000000 0.000000 0.000000 -105.747168 25.440552 6.232284 -19.910181 -0.519194 -24.364738 89.382970 10.398903 -5.173799 11.845322 -3.369653 22.043093 -1.979956 0.847739 0.395859 0.000000 0.000000 0.000000 -105.826125 20.721315 -0.464583 52.451659 10.394423 1.593799 19.093934 3.844998 0.769617 1.748387 -2.178917 1.700159 0.000000 0.000000 0.000000 21.302079 3.905179 -0.049561 12.406271 -2.866217 -2.513853 32.045612 0.733098 -2.913859 0.000000 0.000000 0.000000 19.935794 3.076637 0.356319 0.589783 -4.149873 -7.623144 -1.205567 -2.111460 -4.678912 -24.270739 -19.303747 -30.999797 -10.206542 -58.674603 -4.622918 0.000000 0.000000 0.000000 19.387946 3.165879 0.777816 0.158672 13.892961 15.226549 -3.217396 3.655997 -2.826870 -4.053221 -3.478017 35.066755 1.785920 33.935228 -1.044127 0.000000 0.000000 0.000000 
-21.026789 28.718636 -80.672562 0.000000 0.000000 0.000000 -111.787725 20.139967 1.650892 -43.101888 1.362093 33.144569 60.159077 4.538376 2.864988 33.894988 -2.294773 -10.780547 -2.638182 1.056392 -1.158746 0.000000 0.000000 0.000000 -111.620154 25.508805 7.486585 -11.606108 2.782201 -20.520917 88.185850 9.653583 -7.021818 8.065655 -6.303764 19.904028 0.477720 0.784994 0.448366 0.000000 0.000000 0.000000 -112.416000 21.110773 0.127277 49.775950 8.008966 2.866854 17.799623 2.935450 0.707073 2.311331 -1.706953 2.223733 0.000000 0.000000 0.000000 19.648444 3.034206 -0.181503 11.703072 -3.373571 -1.434922 30.955435 0.952175 -4.927692 0.000000 0.000000 0.000000 18.225207 2.112268 0.423285 0.093447 -4.317415 -6.936464 -0.428229 -1.708163 -3.563703 -17.304756 -19.396810 -30.118033 -9.390207 -56.851216 -4.284121 0.000000 0.000000 0.000000 17.862992 2.254447 0.788771 0.779051 13.938975 14.021311 -3.542004 4.219005 -2.827910 6.676000 0.281552 34.728319 2.199184 29.405750 -0.956939 0.000000 0.000000 0.000000 
-22.106970 29.885567 -83.673660 0.000000 0.000000 0.000000 -116.518738 19.774420 1.876931 -37.326618 0.176771 35.452951 57.779616 2.753340 3.249247 32.874056 -4.460683 -11.152901 -2.565250 1.166414 -0.895523 0.000000 0.000000 0.000000 -116.731307 25.311286 8.683387 -6.775157 5.505468 -18.714648 88.972585 9.069814 -7.959685 6.990836 -7.503800 17.773774 1.499148 0.798667 0.229643 0.000000 0.000000 0.000000 -117.658437 21.454703 1.314899 46.872685 4.295890 3.383563 15.536739 1.481608 0.486975 2.348124 -1.219620 2.267912 0.000000 0.000000 0.000000 17.216952 1.616022 -0.332133 10.245609 -3.618932 -0.290396 28.829689 1.868799 -7.303590 0.000000 0.000000 0.000000 15.737422 0.650604 0.362492 -0.315172 -4.254744 -6.361945 -0.255760 -1.020077 -2.778520 -8.654878 -19.442072 -29.398770 -7.847969 -53.129508 -3.410481 0.000000 0.000000 0.000000 15.416664 0.676700 0.668410 1.594143 12.882430 12.734198 -3.105606 3.470758 -2.953231 16.591697 4.090983 34.794551 2.752773 31.487524 -1.285949 0.000000 0.000000 0.000000 
-23.355837 31.178818 -86.726486 0.000000 0.000000 0.000000 -120.177889 19.392002 2.300791 -32.629248 -0.300570 38.102009 55.572427 1.599979 3.343193 31.188252 -6.232425 -12.225740 -2.920203 1.208351 -0.462995 0.000000 0.000000 0.000000 -120.996542 24.804151 9.645460 -4.892597 7.824388 -18.073915 91.374271 8.879505 -8.492241 8.244088 -6.856961 16.755190 0.572921 0.818440 -0.181970 0.000000 0.000000 0.000000 -121.609346 21.327419 2.679519 44.070296 -0.230182 3.159070 12.697503 -0.340903 0.090434 1.536338 -1.033907 1.759792 0.000000 0.000000 0.000000 14.297760 -0.141583 -0.514327 7.945931 -3.638645 0.687326 26.109819 3.684545 -9.982768 0.000000 0.000000 0.000000 12.916920 -1.141935 0.138639 -0.558721 -3.550112 -5.736964 -0.531538 -0.435856 -2.432961 1.520150 -19.190059 -27.965342 -6.357127 -48.683638 -2.564704 0.000000 0.000000 0.000000 12.513659 -1.323806 0.354058 2.359796 10.754444 11.129955 -1.816172 1.843095 -2.899394 25.120288 6.975862 34.934481 3.485675 40.258262 -2.127593 0.000000 0.000000 0.000000 
-24.702560 32.103584 -90.039917 0.000000 0.000000 0.000000 -122.854421 19.069466 3.184907 -29.620724 -0.524470 40.748946 54.040272 1.289836 3.219194 29.078704 -7.093338 -13.580433 -2.966863 1.205242 -0.160622 0.000000 0.000000 0.000000 -124.084566 23.980070 10.317383 -5.109101 10.004872 -17.937786 94.372013 8.870280 -8.708981 9.907636 -5.335285 15.725764 -0.307786 0.790998 -0.538899 0.000000 0.000000 0.000000 -124.117378 20.754061 3.823501 41.557927 -4.863594 2.367113 9.832720 -2.280456 -0.378984 0.239530 -0.806647 1.053676 0.000000 0.000000 0.000000 11.311573 -1.981771 -0.766383 4.776204 -3.548127 1.126383 23.175474 6.445672 -12.867270 0.000000 0.000000 0.000000 10.299150 -2.909680 -0.200704 -0.582195 -2.085079 -4.924568 -1.214952 -0.195340 -2.463632 12.469625 -18.321830 -25.304688 -5.268310 -44.697147 -1.888116 0.000000 0.000000 0.000000 9.589711 -3.383653 -0.127368 2.871866 7.922304 9.314111 0.237633 0.319034 -2.771611 31.871719 8.568276 35.130555 4.593099 52.548477 -3.540302 0.000000 0.000000 0.000000 
-26.028427 32.403671 -93.299423 0.000000 0.000000 0.000000 -124.549674 18.652717 4.212675 -28.177295 -0.879074 43.120374 53.248517 1.710233 3.016034 26.695222 -7.036374 -15.005880 -2.064712 1.202434 -0.152757 0.000000 0.000000 0.000000 -125.991773 22.951317 10.827256 -6.612114 12.164388 -17.844561 96.995059 8.709682 -8.555507 10.189536 -3.872721 13.470602 0.875673 0.711076 -0.602226 0.000000 0.000000 0.000000 -125.420004 19.776639 4.431939 39.534959 -8.986703 1.270168 7.401828 -4.006249 -0.817812 -0.427790 -0.449004 0.790799 0.000000 0.000000 0.000000 8.553976 -3.607306 -1.021161 0.844560 -3.330587 0.852502 20.299406 9.840258 -15.772619 0.000000 0.000000 0.000000 8.218156 -4.439768 -0.574050 -0.420510 -0.141838 -3.815562 -2.017977 -0.187384 -3.082459 22.626115 -16.344790 -21.829198 -4.558348 -42.221033 -1.326107 0.000000 0.000000 0.000000 7.136950 -5.073799 -0.657300 2.997490 5.068750 7.638069 2.272546 -0.534445 -2.251823 36.643637 9.245207 35.180891 5.694286 62.066011 -5.083907 0.000000 0.000000 0.000000 
-27.082939 31.818203 -96.539795 0.000000 0.000000 0.000000 -125.354175 18.113696 5.272208 -28.037927 -1.526066 44.941306 52.855941 2.599339 2.910137 24.334904 -6.397173 -16.621953 -0.293064 1.236272 -0.488040 0.000000 0.000000 0.000000 -126.878154 21.826392 11.235379 -8.886806 14.223846 -17.601987 98.915407 8.293257 -8.105469 8.963238 -2.902931 9.954812 3.416812 0.583361 -0.373932 0.000000 0.000000 0.000000 -125.794545 18.511363 4.528488 38.025555 -12.154162 0.119067 5.668501 -5.298604 -1.138288 -0.812649 -0.154108 0.716660 0.000000 0.000000 0.000000 6.315451 -4.812159 -1.228827 -3.205254 -3.097683 -0.050542 17.734914 13.660716 -18.502566 0.000000 0.000000 0.000000 6.673122 -5.494124 -0.952284 -0.144017 2.099496 -2.797797 -2.683093 -0.626325 -3.659778 30.943793 -13.344211 -18.122201 -3.717282 -41.776009 -0.611300 0.000000 0.000000 0.000000 5.413500 -6.142959 -1.121350 2.743823 2.606022 6.502386 3.947494 -0.289045 -1.648896 39.052064 9.657269 34.940140 5.253912 64.256856 -5.134349 0.000000 0.000000 0.000000 
